<?xml version="1.0" encoding="UTF-8" standalone="no"?>
<!DOCTYPE svg PUBLIC "-//W3C//DTD SVG 1.1//EN" "http://www.w3.org/Graphics/SVG/1.1/DTD/svg11.dtd">
<svg width="100%" height="100%" viewBox="0 0 300 120" version="1.1" xmlns="http://www.w3.org/2000/svg" xmlns:xlink="http://www.w3.org/1999/xlink" xml:space="preserve" xmlns:serif="http://www.serif.com/" style="fill-rule:evenodd;clip-rule:evenodd;stroke-linecap:round;stroke-linejoin:round;stroke-miterlimit:2;">
    <g transform="matrix(1.50643,0,0,1.50643,-85.1513,-15.1533)">
        <g transform="matrix(50,0,0,50,57.3795,60.2769)">
            <path d="M0.125,0.014C0.109,0.014 0.094,0.01 0.08,0.001C0.065,-0.008 0.054,-0.019 0.045,-0.033C0.036,-0.047 0.032,-0.061 0.032,-0.076C0.032,-0.099 0.038,-0.117 0.052,-0.131C0.065,-0.146 0.085,-0.158 0.112,-0.17L0.205,-0.21C0.218,-0.215 0.226,-0.22 0.229,-0.225C0.232,-0.23 0.234,-0.238 0.234,-0.251L0.236,-0.31C0.236,-0.329 0.232,-0.344 0.224,-0.355C0.216,-0.366 0.203,-0.372 0.187,-0.372C0.178,-0.372 0.169,-0.37 0.16,-0.367C0.151,-0.363 0.143,-0.359 0.138,-0.354C0.135,-0.351 0.133,-0.348 0.132,-0.344C0.131,-0.34 0.131,-0.335 0.131,-0.331C0.131,-0.327 0.132,-0.309 0.132,-0.306C0.132,-0.301 0.127,-0.296 0.117,-0.29C0.107,-0.284 0.096,-0.279 0.083,-0.274C0.071,-0.27 0.06,-0.267 0.051,-0.267C0.047,-0.267 0.043,-0.269 0.04,-0.272C0.037,-0.275 0.036,-0.279 0.036,-0.284C0.036,-0.295 0.039,-0.305 0.046,-0.316C0.054,-0.328 0.065,-0.339 0.08,-0.352C0.097,-0.366 0.115,-0.379 0.135,-0.39C0.155,-0.401 0.174,-0.41 0.193,-0.416C0.213,-0.423 0.229,-0.426 0.243,-0.426C0.275,-0.426 0.301,-0.416 0.32,-0.395C0.34,-0.374 0.349,-0.346 0.348,-0.312L0.343,-0.098C0.342,-0.083 0.345,-0.071 0.351,-0.061C0.358,-0.051 0.365,-0.046 0.375,-0.046C0.389,-0.046 0.401,-0.05 0.409,-0.058C0.412,-0.06 0.414,-0.062 0.416,-0.062C0.419,-0.062 0.422,-0.061 0.424,-0.058C0.427,-0.056 0.428,-0.053 0.428,-0.05C0.428,-0.042 0.422,-0.033 0.412,-0.023C0.4,-0.011 0.387,-0.002 0.374,0.005C0.36,0.011 0.346,0.014 0.333,0.014C0.298,0.014 0.269,-0.004 0.247,-0.041L0.244,-0.041C0.222,-0.022 0.202,-0.008 0.183,0.001C0.165,0.01 0.145,0.014 0.125,0.014ZM0.181,-0.046C0.19,-0.046 0.198,-0.047 0.204,-0.05C0.21,-0.053 0.216,-0.058 0.221,-0.064C0.224,-0.066 0.226,-0.07 0.228,-0.075C0.229,-0.08 0.23,-0.086 0.231,-0.095L0.233,-0.159C0.233,-0.166 0.233,-0.17 0.231,-0.173C0.229,-0.175 0.227,-0.176 0.224,-0.176C0.222,-0.176 0.22,-0.176 0.218,-0.175C0.215,-0.175 0.213,-0.174 0.209,-0.172C0.184,-0.162 0.167,-0.151 0.156,-0.14C0.145,-0.129 0.14,-0.114 0.14,-0.096C0.14,-0.078 0.144,-0.065 0.153,-0.057C0.162,-0.049 0.171,-0.046 0.181,-0.046Z" style="fill:currentColor;fill-rule:nonzero;stroke:currentColor;stroke-width:0.02px;"/>
        </g>
        <g transform="matrix(50,0,0,50,77.1495,60.2769)">
            <path d="M0.044,0.003C0.038,0.003 0.034,0.002 0.03,-0C0.026,-0.003 0.024,-0.006 0.024,-0.01C0.024,-0.016 0.026,-0.019 0.03,-0.022C0.035,-0.025 0.04,-0.027 0.047,-0.029C0.061,-0.033 0.071,-0.038 0.076,-0.043C0.082,-0.049 0.085,-0.057 0.085,-0.067L0.085,-0.292C0.085,-0.307 0.082,-0.32 0.078,-0.331C0.074,-0.341 0.065,-0.348 0.051,-0.351C0.048,-0.352 0.045,-0.354 0.043,-0.356C0.04,-0.359 0.039,-0.363 0.039,-0.368C0.039,-0.376 0.043,-0.381 0.05,-0.383C0.07,-0.388 0.092,-0.395 0.115,-0.405C0.139,-0.414 0.158,-0.423 0.174,-0.431C0.178,-0.433 0.181,-0.435 0.185,-0.437C0.189,-0.439 0.192,-0.44 0.194,-0.44C0.2,-0.44 0.202,-0.437 0.202,-0.43C0.202,-0.427 0.202,-0.421 0.202,-0.412C0.201,-0.402 0.2,-0.361 0.199,-0.352C0.199,-0.348 0.2,-0.346 0.202,-0.346C0.213,-0.36 0.224,-0.373 0.238,-0.385C0.251,-0.397 0.265,-0.407 0.281,-0.415C0.296,-0.423 0.311,-0.427 0.326,-0.427C0.345,-0.427 0.36,-0.423 0.37,-0.415C0.379,-0.407 0.384,-0.397 0.384,-0.385C0.384,-0.376 0.382,-0.366 0.377,-0.355C0.372,-0.345 0.365,-0.335 0.357,-0.327C0.35,-0.32 0.341,-0.316 0.332,-0.316C0.327,-0.316 0.321,-0.317 0.315,-0.32C0.309,-0.322 0.303,-0.325 0.297,-0.328C0.291,-0.331 0.285,-0.333 0.278,-0.336C0.272,-0.338 0.267,-0.34 0.261,-0.34C0.245,-0.34 0.23,-0.334 0.216,-0.321C0.203,-0.309 0.196,-0.285 0.196,-0.249L0.196,-0.073C0.196,-0.061 0.201,-0.052 0.209,-0.046C0.218,-0.04 0.231,-0.034 0.249,-0.028C0.256,-0.026 0.262,-0.024 0.265,-0.022C0.269,-0.019 0.271,-0.015 0.271,-0.01C0.271,-0.001 0.265,0.003 0.253,0.003C0.233,0.003 0.214,0.002 0.197,0.001C0.179,-0.001 0.161,-0.002 0.144,-0.002C0.132,-0.002 0.122,-0.002 0.112,-0.001C0.101,-0 0.091,0.001 0.08,0.002C0.069,0.003 0.057,0.003 0.044,0.003Z" style="fill:currentColor;fill-rule:nonzero;stroke:currentColor;stroke-width:0.02px;"/>
        </g>
        <g transform="matrix(50,0,0,50,95.0444,60.2769)">
            <path d="M0.04,0.003C0.035,0.003 0.03,0.002 0.027,-0.001C0.024,-0.003 0.022,-0.006 0.022,-0.01C0.022,-0.015 0.024,-0.019 0.028,-0.022C0.032,-0.025 0.037,-0.027 0.042,-0.028C0.058,-0.032 0.07,-0.036 0.077,-0.041C0.084,-0.046 0.087,-0.054 0.087,-0.065L0.087,-0.282C0.087,-0.303 0.084,-0.319 0.077,-0.33C0.07,-0.341 0.059,-0.347 0.043,-0.35C0.04,-0.351 0.037,-0.353 0.035,-0.356C0.033,-0.359 0.032,-0.362 0.032,-0.366C0.032,-0.375 0.036,-0.38 0.043,-0.381C0.075,-0.388 0.103,-0.397 0.127,-0.409C0.15,-0.42 0.168,-0.429 0.181,-0.436C0.19,-0.441 0.196,-0.443 0.199,-0.443C0.206,-0.443 0.21,-0.44 0.21,-0.433C0.209,-0.424 0.208,-0.411 0.206,-0.395C0.204,-0.378 0.202,-0.361 0.201,-0.343C0.199,-0.324 0.198,-0.307 0.198,-0.291L0.198,-0.066C0.198,-0.056 0.202,-0.048 0.209,-0.043C0.216,-0.038 0.228,-0.033 0.244,-0.028C0.249,-0.026 0.254,-0.024 0.258,-0.022C0.262,-0.019 0.264,-0.015 0.264,-0.01C0.264,-0.002 0.258,0.002 0.247,0.002C0.234,0.002 0.222,0.002 0.211,0.001C0.199,0 0.188,-0 0.177,-0.001C0.166,-0.002 0.154,-0.002 0.142,-0.002C0.131,-0.002 0.12,-0.002 0.109,-0.001C0.098,-0 0.088,0.001 0.077,0.002C0.066,0.003 0.053,0.003 0.04,0.003ZM0.14,-0.501C0.121,-0.501 0.104,-0.508 0.091,-0.521C0.078,-0.534 0.071,-0.55 0.071,-0.569C0.071,-0.59 0.078,-0.607 0.091,-0.62C0.104,-0.633 0.121,-0.64 0.14,-0.64C0.16,-0.64 0.177,-0.633 0.19,-0.62C0.203,-0.607 0.21,-0.59 0.21,-0.569C0.21,-0.55 0.203,-0.534 0.19,-0.521C0.177,-0.508 0.16,-0.501 0.14,-0.501Z" style="fill:currentColor;fill-rule:nonzero;stroke:currentColor;stroke-width:0.02px;"/>
        </g>
        <g transform="matrix(50,0,0,50,107.472,60.2769)">
            <path d="M0.212,0.014C0.176,0.014 0.143,0.005 0.115,-0.014C0.087,-0.032 0.065,-0.058 0.049,-0.091C0.033,-0.124 0.025,-0.162 0.025,-0.204C0.025,-0.245 0.035,-0.282 0.053,-0.316C0.072,-0.349 0.098,-0.376 0.13,-0.396C0.162,-0.416 0.197,-0.426 0.235,-0.426C0.263,-0.426 0.288,-0.42 0.31,-0.408C0.332,-0.397 0.35,-0.381 0.363,-0.361C0.376,-0.341 0.382,-0.318 0.382,-0.292C0.382,-0.268 0.372,-0.256 0.351,-0.256L0.148,-0.256C0.138,-0.256 0.132,-0.254 0.128,-0.249C0.124,-0.243 0.122,-0.234 0.122,-0.221C0.122,-0.193 0.128,-0.168 0.14,-0.145C0.152,-0.122 0.168,-0.105 0.189,-0.091C0.21,-0.078 0.233,-0.071 0.26,-0.071C0.279,-0.071 0.297,-0.075 0.314,-0.083C0.33,-0.09 0.345,-0.101 0.36,-0.114C0.363,-0.116 0.365,-0.118 0.367,-0.12C0.369,-0.121 0.371,-0.122 0.373,-0.122C0.379,-0.122 0.383,-0.118 0.383,-0.11C0.383,-0.101 0.379,-0.09 0.371,-0.076C0.363,-0.061 0.352,-0.046 0.337,-0.032C0.322,-0.018 0.304,-0.007 0.282,0.002C0.261,0.01 0.238,0.014 0.212,0.014ZM0.149,-0.295L0.219,-0.295C0.236,-0.295 0.25,-0.295 0.258,-0.296C0.267,-0.296 0.275,-0.298 0.283,-0.3C0.286,-0.301 0.288,-0.304 0.29,-0.309C0.292,-0.314 0.292,-0.319 0.292,-0.326C0.292,-0.344 0.285,-0.359 0.272,-0.372C0.258,-0.384 0.241,-0.39 0.221,-0.39C0.207,-0.39 0.193,-0.386 0.18,-0.378C0.167,-0.369 0.156,-0.359 0.147,-0.346C0.139,-0.334 0.134,-0.321 0.135,-0.307C0.135,-0.299 0.139,-0.295 0.149,-0.295Z" style="fill:currentColor;fill-rule:nonzero;stroke:currentColor;stroke-width:0.02px;"/>
        </g>
        <g transform="matrix(50,0,0,50,126.379,60.2769)">
            <path d="M0.077,-0.42C0.073,-0.42 0.071,-0.423 0.069,-0.429C0.068,-0.435 0.067,-0.441 0.067,-0.446C0.068,-0.458 0.068,-0.469 0.067,-0.479C0.067,-0.489 0.067,-0.499 0.067,-0.509C0.067,-0.523 0.066,-0.537 0.065,-0.552C0.064,-0.566 0.064,-0.579 0.063,-0.591C0.062,-0.603 0.061,-0.612 0.061,-0.618C0.061,-0.627 0.064,-0.635 0.07,-0.642C0.075,-0.649 0.081,-0.654 0.087,-0.658C0.097,-0.665 0.106,-0.671 0.114,-0.675C0.122,-0.679 0.131,-0.681 0.142,-0.681C0.148,-0.681 0.154,-0.677 0.157,-0.67C0.161,-0.663 0.163,-0.655 0.163,-0.646C0.163,-0.626 0.159,-0.604 0.152,-0.578C0.145,-0.553 0.137,-0.528 0.127,-0.505C0.118,-0.481 0.11,-0.462 0.103,-0.449C0.1,-0.442 0.095,-0.435 0.09,-0.429C0.084,-0.423 0.08,-0.42 0.077,-0.42Z" style="fill:currentColor;fill-rule:nonzero;stroke:currentColor;stroke-width:0.02px;"/>
        </g>
        <g transform="matrix(50,0,0,50,136.117,60.2769)">
            <path d="M0.158,0.014C0.137,0.014 0.116,0.011 0.096,0.006C0.077,0 0.059,-0.009 0.043,-0.02C0.038,-0.03 0.034,-0.044 0.032,-0.064C0.03,-0.084 0.029,-0.104 0.029,-0.123C0.029,-0.131 0.035,-0.135 0.046,-0.135C0.051,-0.135 0.055,-0.133 0.058,-0.131C0.062,-0.128 0.064,-0.125 0.065,-0.122C0.076,-0.093 0.091,-0.069 0.108,-0.051C0.125,-0.033 0.145,-0.025 0.167,-0.025C0.186,-0.025 0.2,-0.03 0.211,-0.042C0.221,-0.054 0.227,-0.068 0.227,-0.083C0.227,-0.101 0.22,-0.116 0.207,-0.128C0.194,-0.14 0.176,-0.152 0.154,-0.165C0.133,-0.177 0.115,-0.188 0.099,-0.201C0.082,-0.213 0.07,-0.228 0.06,-0.244C0.051,-0.26 0.046,-0.28 0.046,-0.302C0.046,-0.326 0.052,-0.348 0.065,-0.367C0.078,-0.385 0.096,-0.4 0.119,-0.411C0.141,-0.421 0.168,-0.427 0.198,-0.427C0.219,-0.427 0.239,-0.424 0.255,-0.42C0.272,-0.415 0.284,-0.411 0.291,-0.406C0.296,-0.399 0.301,-0.387 0.304,-0.369C0.307,-0.352 0.309,-0.333 0.309,-0.314C0.309,-0.308 0.304,-0.305 0.294,-0.305C0.289,-0.305 0.285,-0.306 0.28,-0.309C0.276,-0.312 0.273,-0.314 0.271,-0.317C0.263,-0.342 0.252,-0.361 0.238,-0.373C0.225,-0.386 0.209,-0.392 0.192,-0.392C0.176,-0.392 0.162,-0.387 0.15,-0.378C0.138,-0.368 0.132,-0.355 0.132,-0.337C0.132,-0.323 0.138,-0.31 0.15,-0.299C0.161,-0.287 0.178,-0.276 0.2,-0.264C0.242,-0.241 0.272,-0.22 0.291,-0.2C0.31,-0.179 0.319,-0.152 0.319,-0.118C0.319,-0.078 0.305,-0.045 0.277,-0.022C0.249,0.002 0.209,0.014 0.158,0.014Z" style="fill:currentColor;fill-rule:nonzero;stroke:currentColor;stroke-width:0.02px;"/>
        </g>
        <g transform="matrix(50,0,0,50,161.742,60.2769)">
            <path d="M0.27,0.014C0.252,0.014 0.235,0.012 0.219,0.009C0.204,0.006 0.189,0.003 0.176,-0.001C0.164,-0.004 0.154,-0.007 0.144,-0.009C0.135,-0.012 0.128,-0.013 0.123,-0.013C0.118,-0.013 0.113,-0.012 0.107,-0.009C0.102,-0.007 0.097,-0.003 0.093,0C0.087,0.004 0.083,0.006 0.08,0.006C0.075,0.006 0.071,0.005 0.068,0.003C0.065,0 0.063,-0.003 0.063,-0.006C0.063,-0.012 0.065,-0.024 0.068,-0.04C0.071,-0.057 0.073,-0.075 0.072,-0.097L0.07,-0.555C0.07,-0.573 0.066,-0.588 0.06,-0.601C0.054,-0.615 0.044,-0.623 0.028,-0.627C0.025,-0.628 0.023,-0.63 0.02,-0.633C0.017,-0.635 0.016,-0.639 0.016,-0.643C0.016,-0.647 0.017,-0.65 0.019,-0.652C0.022,-0.654 0.024,-0.655 0.027,-0.656C0.04,-0.658 0.055,-0.663 0.073,-0.669C0.091,-0.675 0.109,-0.681 0.125,-0.687C0.142,-0.694 0.154,-0.698 0.163,-0.701C0.168,-0.704 0.172,-0.705 0.175,-0.705C0.178,-0.705 0.181,-0.704 0.182,-0.702C0.184,-0.7 0.184,-0.697 0.184,-0.695C0.184,-0.691 0.184,-0.682 0.182,-0.667C0.181,-0.652 0.18,-0.635 0.18,-0.618L0.18,-0.407C0.18,-0.397 0.18,-0.389 0.182,-0.385C0.183,-0.38 0.186,-0.377 0.189,-0.377C0.209,-0.392 0.232,-0.404 0.256,-0.413C0.28,-0.422 0.302,-0.426 0.323,-0.426C0.357,-0.426 0.388,-0.417 0.416,-0.399C0.444,-0.381 0.465,-0.357 0.482,-0.327C0.498,-0.296 0.506,-0.261 0.506,-0.223C0.506,-0.176 0.496,-0.135 0.476,-0.099C0.456,-0.064 0.428,-0.036 0.393,-0.016C0.358,0.004 0.317,0.014 0.27,0.014ZM0.289,-0.025C0.31,-0.025 0.327,-0.033 0.342,-0.048C0.356,-0.064 0.367,-0.085 0.375,-0.111C0.383,-0.137 0.387,-0.166 0.387,-0.198C0.387,-0.224 0.383,-0.251 0.376,-0.278C0.368,-0.306 0.356,-0.329 0.339,-0.347C0.322,-0.366 0.301,-0.375 0.274,-0.375C0.257,-0.375 0.24,-0.372 0.223,-0.367C0.206,-0.361 0.191,-0.354 0.18,-0.344L0.18,-0.138C0.18,-0.115 0.185,-0.096 0.195,-0.078C0.206,-0.061 0.219,-0.048 0.236,-0.039C0.253,-0.029 0.271,-0.025 0.289,-0.025Z" style="fill:currentColor;fill-rule:nonzero;stroke:currentColor;stroke-width:0.02px;"/>
        </g>
        <g transform="matrix(50,0,0,50,186.149,60.2769)">
            <path d="M0.037,0.003C0.032,0.003 0.027,0.002 0.023,0C0.019,-0.002 0.017,-0.005 0.017,-0.009C0.017,-0.015 0.019,-0.019 0.023,-0.021C0.028,-0.024 0.033,-0.027 0.04,-0.029C0.05,-0.032 0.059,-0.036 0.067,-0.04C0.075,-0.044 0.08,-0.053 0.08,-0.067L0.08,-0.555C0.08,-0.574 0.077,-0.589 0.071,-0.603C0.066,-0.616 0.055,-0.624 0.038,-0.627C0.031,-0.629 0.028,-0.634 0.028,-0.642C0.028,-0.65 0.031,-0.654 0.037,-0.656C0.054,-0.659 0.071,-0.664 0.089,-0.67C0.106,-0.676 0.123,-0.682 0.139,-0.688C0.155,-0.694 0.168,-0.699 0.178,-0.702C0.182,-0.704 0.186,-0.705 0.188,-0.705C0.192,-0.705 0.194,-0.704 0.195,-0.702C0.196,-0.699 0.197,-0.697 0.197,-0.695C0.197,-0.689 0.196,-0.679 0.194,-0.664C0.192,-0.65 0.191,-0.629 0.191,-0.604L0.191,-0.068C0.191,-0.054 0.195,-0.045 0.203,-0.041C0.211,-0.037 0.22,-0.033 0.23,-0.03C0.237,-0.028 0.242,-0.025 0.247,-0.022C0.251,-0.02 0.253,-0.016 0.253,-0.01C0.253,-0.006 0.251,-0.003 0.247,-0.001C0.243,0.001 0.239,0.002 0.233,0.002C0.22,0.002 0.209,0.001 0.198,0.001C0.187,-0 0.176,-0.001 0.166,-0.001C0.156,-0.002 0.145,-0.002 0.133,-0.002C0.122,-0.002 0.111,-0.002 0.102,-0.001C0.092,-0 0.082,0.001 0.072,0.002C0.062,0.003 0.05,0.003 0.037,0.003Z" style="fill:currentColor;fill-rule:nonzero;stroke:currentColor;stroke-width:0.02px;"/>
        </g>
        <g transform="matrix(50,0,0,50,197.612,60.2769)">
            <path d="M0.236,0.014C0.197,0.014 0.162,0.005 0.13,-0.013C0.099,-0.03 0.074,-0.055 0.055,-0.086C0.037,-0.117 0.027,-0.153 0.027,-0.193C0.027,-0.223 0.033,-0.252 0.045,-0.28C0.057,-0.308 0.073,-0.333 0.094,-0.355C0.115,-0.377 0.139,-0.395 0.167,-0.407C0.195,-0.42 0.225,-0.427 0.257,-0.427C0.298,-0.427 0.334,-0.417 0.367,-0.398C0.399,-0.379 0.425,-0.354 0.444,-0.323C0.464,-0.291 0.473,-0.257 0.473,-0.22C0.473,-0.179 0.464,-0.14 0.447,-0.105C0.429,-0.069 0.403,-0.04 0.368,-0.019C0.333,0.003 0.289,0.014 0.236,0.014ZM0.256,-0.025C0.273,-0.025 0.288,-0.029 0.301,-0.035C0.313,-0.042 0.324,-0.052 0.332,-0.066C0.34,-0.08 0.345,-0.099 0.348,-0.122C0.351,-0.144 0.353,-0.169 0.353,-0.196C0.353,-0.231 0.348,-0.263 0.339,-0.292C0.329,-0.32 0.317,-0.343 0.3,-0.361C0.283,-0.378 0.264,-0.387 0.241,-0.387C0.229,-0.387 0.217,-0.385 0.206,-0.381C0.196,-0.376 0.186,-0.369 0.178,-0.36C0.166,-0.345 0.158,-0.326 0.154,-0.302C0.149,-0.277 0.147,-0.249 0.147,-0.217C0.147,-0.185 0.152,-0.154 0.161,-0.125C0.171,-0.095 0.184,-0.072 0.2,-0.053C0.217,-0.035 0.235,-0.025 0.256,-0.025Z" style="fill:currentColor;fill-rule:nonzero;stroke:currentColor;stroke-width:0.02px;"/>
        </g>
        <g transform="matrix(50,0,0,50,221.137,60.2769)">
            <path d="M0.209,0.289C0.147,0.289 0.098,0.279 0.062,0.258C0.027,0.238 0.009,0.209 0.009,0.173C0.009,0.154 0.012,0.138 0.017,0.126C0.022,0.114 0.032,0.103 0.047,0.092C0.058,0.083 0.071,0.073 0.084,0.063C0.097,0.053 0.109,0.043 0.121,0.035L0.168,0.047C0.143,0.062 0.125,0.077 0.113,0.092C0.101,0.108 0.095,0.126 0.095,0.148C0.095,0.175 0.106,0.197 0.129,0.215C0.153,0.233 0.182,0.242 0.217,0.242C0.26,0.242 0.293,0.233 0.313,0.215C0.327,0.203 0.338,0.189 0.346,0.172C0.354,0.155 0.358,0.138 0.358,0.121C0.358,0.108 0.353,0.099 0.345,0.091C0.337,0.083 0.323,0.077 0.303,0.072C0.283,0.067 0.255,0.063 0.221,0.06C0.154,0.054 0.106,0.042 0.079,0.025C0.051,0.009 0.037,-0.015 0.037,-0.045C0.037,-0.051 0.039,-0.057 0.043,-0.063C0.046,-0.07 0.053,-0.076 0.063,-0.083C0.075,-0.092 0.085,-0.1 0.093,-0.106C0.102,-0.112 0.108,-0.118 0.114,-0.123C0.119,-0.128 0.123,-0.133 0.126,-0.139L0.17,-0.121C0.156,-0.117 0.145,-0.11 0.136,-0.102C0.127,-0.093 0.123,-0.086 0.123,-0.08C0.123,-0.072 0.127,-0.065 0.136,-0.059C0.145,-0.054 0.16,-0.049 0.18,-0.046C0.2,-0.043 0.227,-0.04 0.261,-0.037C0.329,-0.032 0.38,-0.022 0.411,-0.005C0.443,0.011 0.459,0.035 0.459,0.066C0.459,0.093 0.451,0.12 0.437,0.146C0.423,0.172 0.403,0.196 0.379,0.218C0.355,0.24 0.328,0.257 0.299,0.27C0.269,0.283 0.239,0.289 0.209,0.289ZM0.222,-0.14C0.244,-0.14 0.262,-0.153 0.276,-0.177C0.29,-0.201 0.297,-0.232 0.297,-0.271C0.297,-0.294 0.294,-0.314 0.286,-0.332C0.279,-0.35 0.27,-0.364 0.258,-0.374C0.246,-0.385 0.232,-0.39 0.217,-0.39C0.203,-0.39 0.19,-0.385 0.179,-0.374C0.167,-0.363 0.158,-0.349 0.151,-0.331C0.144,-0.314 0.141,-0.294 0.141,-0.272C0.141,-0.247 0.144,-0.225 0.152,-0.205C0.159,-0.185 0.169,-0.17 0.181,-0.158C0.193,-0.146 0.207,-0.14 0.222,-0.14ZM0.213,-0.099C0.184,-0.099 0.156,-0.106 0.129,-0.121C0.102,-0.135 0.079,-0.154 0.062,-0.179C0.044,-0.203 0.036,-0.23 0.036,-0.261C0.036,-0.294 0.045,-0.323 0.063,-0.348C0.081,-0.373 0.105,-0.392 0.134,-0.406C0.164,-0.421 0.195,-0.428 0.228,-0.428C0.248,-0.428 0.267,-0.425 0.284,-0.42C0.301,-0.416 0.32,-0.411 0.339,-0.408C0.353,-0.404 0.365,-0.402 0.377,-0.401C0.389,-0.4 0.401,-0.399 0.414,-0.399C0.424,-0.399 0.434,-0.4 0.445,-0.401C0.455,-0.402 0.463,-0.402 0.469,-0.402C0.479,-0.402 0.484,-0.396 0.484,-0.382C0.484,-0.372 0.48,-0.362 0.472,-0.352C0.469,-0.348 0.465,-0.346 0.462,-0.346L0.435,-0.346C0.417,-0.346 0.406,-0.343 0.401,-0.338C0.4,-0.336 0.399,-0.333 0.398,-0.331C0.397,-0.328 0.397,-0.324 0.396,-0.318C0.396,-0.312 0.396,-0.303 0.396,-0.291C0.396,-0.256 0.387,-0.225 0.37,-0.196C0.354,-0.166 0.331,-0.143 0.304,-0.126C0.276,-0.108 0.246,-0.099 0.213,-0.099Z" style="fill:currentColor;fill-rule:nonzero;stroke:currentColor;stroke-width:0.02px;"/>
        </g>
        <g transform="matrix(50,0,0,50,243.559,60.2769)">
            <path d="M0.12,0.025C0.101,0.025 0.084,0.018 0.069,0.004C0.055,-0.011 0.048,-0.028 0.048,-0.047C0.048,-0.068 0.055,-0.085 0.069,-0.1C0.084,-0.114 0.101,-0.121 0.12,-0.121C0.141,-0.121 0.158,-0.114 0.172,-0.1C0.187,-0.085 0.194,-0.068 0.194,-0.047C0.194,-0.028 0.187,-0.011 0.172,0.004C0.158,0.018 0.141,0.025 0.12,0.025Z" style="fill:currentColor;fill-rule:nonzero;stroke:currentColor;stroke-width:0.02px;"/>
        </g>
    </g>
</svg>
